<svg width="18" height="18" viewBox="0 0 18 18" fill="none" xmlns="http://www.w3.org/2000/svg">
<mask id="mask0_90_299" style="mask-type:alpha" maskUnits="userSpaceOnUse" x="0" y="0" width="18" height="18">
<rect width="18" height="18" fill="#E1DDF4"/>
</mask>
<g mask="url(#mask0_90_299)">
<path d="M8.26877 15.75V14.1375C7.60627 13.9875 7.0344 13.7 6.55315 13.275C6.0719 12.85 5.71877 12.25 5.49377 11.475L6.88127 10.9125C7.06877 11.5125 7.3469 11.9688 7.71565 12.2812C8.0844 12.5938 8.56877 12.75 9.16877 12.75C9.68127 12.75 10.1156 12.6344 10.4719 12.4031C10.8281 12.1719 11.0063 11.8125 11.0063 11.325C11.0063 10.8875 10.8688 10.5406 10.5938 10.2844C10.3188 10.0281 9.68127 9.7375 8.68127 9.4125C7.60627 9.075 6.86877 8.67188 6.46877 8.20312C6.06877 7.73438 5.86877 7.1625 5.86877 6.4875C5.86877 5.675 6.13127 5.04375 6.65627 4.59375C7.18127 4.14375 7.71877 3.8875 8.26877 3.825V2.25H9.76877V3.825C10.3938 3.925 10.9094 4.15313 11.3156 4.50938C11.7219 4.86563 12.0188 5.3 12.2063 5.8125L10.8188 6.4125C10.6688 6.0125 10.4563 5.7125 10.1813 5.5125C9.90627 5.3125 9.53127 5.2125 9.05627 5.2125C8.50627 5.2125 8.08752 5.33437 7.80002 5.57812C7.51252 5.82188 7.36877 6.125 7.36877 6.4875C7.36877 6.9 7.55627 7.225 7.93127 7.4625C8.30627 7.7 8.95627 7.95 9.88127 8.2125C10.7438 8.4625 11.3969 8.85938 11.8406 9.40313C12.2844 9.94688 12.5063 10.575 12.5063 11.2875C12.5063 12.175 12.2438 12.85 11.7188 13.3125C11.1938 13.775 10.5438 14.0625 9.76877 14.175V15.75H8.26877Z" fill="#5137E0"/>
</g>
</svg>
