<svg width="21" height="20" viewBox="0 0 21 20" fill="none" xmlns="http://www.w3.org/2000/svg">
<path d="M10.5 1.66669C5.89167 1.66669 2.16667 5.39169 2.16667 10C2.16667 14.6084 5.89167 18.3334 10.5 18.3334C12.7101 18.3334 14.8298 17.4554 16.3926 15.8926C17.9554 14.3298 18.8333 12.2102 18.8333 10C18.8333 5.39169 15.0833 1.66669 10.5 1.66669ZM7.9 6.51669L9.66667 8.28335L8.78334 9.16669L7.9 8.28335L7.01667 9.16669L6.13334 8.28335L7.9 6.51669ZM10.5 14.5834C8.55834 14.5834 6.90834 13.3667 6.24167 11.6667H14.7583C14.0917 13.3667 12.4417 14.5834 10.5 14.5834ZM13.9833 9.16669L13.1 8.28335L12.2167 9.16669L11.3333 8.28335L13.1 6.51669L14.8667 8.28335L13.9833 9.16669Z" fill="#E34040"/>
</svg>
