<svg width="20" height="20" viewBox="0 0 20 20" fill="none" xmlns="http://www.w3.org/2000/svg">
<mask id="mask0_99_616" style="mask-type:alpha" maskUnits="userSpaceOnUse" x="0" y="0" width="20" height="20">
<rect width="20" height="20" fill="#E1DDF4"/>
</mask>
<g mask="url(#mask0_99_616)">
<path d="M6.99999 14.1667L9.99999 11.1667L13 14.1667L14.1667 13L11.1667 10L14.1667 7.00002L13 5.83335L9.99999 8.83335L6.99999 5.83335L5.83332 7.00002L8.83332 10L5.83332 13L6.99999 14.1667ZM9.99999 18.3334C8.84721 18.3334 7.76388 18.1146 6.74999 17.6771C5.7361 17.2396 4.85416 16.6459 4.10416 15.8959C3.35416 15.1459 2.76041 14.2639 2.32291 13.25C1.88541 12.2361 1.66666 11.1528 1.66666 10C1.66666 8.84724 1.88541 7.76391 2.32291 6.75002C2.76041 5.73613 3.35416 4.85419 4.10416 4.10419C4.85416 3.35419 5.7361 2.76044 6.74999 2.32294C7.76388 1.88544 8.84721 1.66669 9.99999 1.66669C11.1528 1.66669 12.2361 1.88544 13.25 2.32294C14.2639 2.76044 15.1458 3.35419 15.8958 4.10419C16.6458 4.85419 17.2396 5.73613 17.6771 6.75002C18.1146 7.76391 18.3333 8.84724 18.3333 10C18.3333 11.1528 18.1146 12.2361 17.6771 13.25C17.2396 14.2639 16.6458 15.1459 15.8958 15.8959C15.1458 16.6459 14.2639 17.2396 13.25 17.6771C12.2361 18.1146 11.1528 18.3334 9.99999 18.3334Z" fill="#64697C"/>
</g>
</svg>
