<svg width="20" height="20" viewBox="0 0 20 20" fill="none" xmlns="http://www.w3.org/2000/svg">
<mask id="mask0_99_583" style="mask-type:alpha" maskUnits="userSpaceOnUse" x="0" y="0" width="20" height="20">
<rect width="20" height="20" fill="#D9D9D9"/>
</mask>
<g mask="url(#mask0_99_583)">
<path d="M1.66669 18.3333V3.33332C1.66669 2.87499 1.82988 2.48263 2.15627 2.15624C2.48266 1.82985 2.87502 1.66666 3.33335 1.66666H16.6667C17.125 1.66666 17.5174 1.82985 17.8438 2.15624C18.1702 2.48263 18.3334 2.87499 18.3334 3.33332V13.3333C18.3334 13.7917 18.1702 14.184 17.8438 14.5104C17.5174 14.8368 17.125 15 16.6667 15H5.00002L1.66669 18.3333ZM4.29169 13.3333H16.6667V3.33332H3.33335V14.2708L4.29169 13.3333Z" fill="#5137E0"/>
</g>
</svg>
