<svg width="16" height="16" viewBox="0 0 16 16" fill="none" xmlns="http://www.w3.org/2000/svg">
<mask id="mask0_99_363" style="mask-type:alpha" maskUnits="userSpaceOnUse" x="0" y="0" width="16" height="16">
<rect width="16" height="16" fill="#D9D9D9"/>
</mask>
<g mask="url(#mask0_99_363)">
<path d="M8.00001 14.6667C7.07779 14.6667 6.21112 14.4917 5.40001 14.1417C4.5889 13.7917 3.88334 13.3167 3.28334 12.7167C2.68334 12.1167 2.20834 11.4111 1.85834 10.6C1.50834 9.7889 1.33334 8.92223 1.33334 8.00001C1.33334 7.07779 1.50834 6.21112 1.85834 5.40001C2.20834 4.5889 2.68334 3.88334 3.28334 3.28334C3.88334 2.68334 4.5889 2.20834 5.40001 1.85834C6.21112 1.50834 7.07779 1.33334 8.00001 1.33334C8.92223 1.33334 9.7889 1.50834 10.6 1.85834C11.4111 2.20834 12.1167 2.68334 12.7167 3.28334C13.3167 3.88334 13.7917 4.5889 14.1417 5.40001C14.4917 6.21112 14.6667 7.07779 14.6667 8.00001C14.6667 8.92223 14.4917 9.7889 14.1417 10.6C13.7917 11.4111 13.3167 12.1167 12.7167 12.7167C12.1167 13.3167 11.4111 13.7917 10.6 14.1417C9.7889 14.4917 8.92223 14.6667 8.00001 14.6667ZM8.00001 13.3333C9.4889 13.3333 10.75 12.8167 11.7833 11.7833C12.8167 10.75 13.3333 9.4889 13.3333 8.00001C13.3333 6.51112 12.8167 5.25001 11.7833 4.21668C10.75 3.18334 9.4889 2.66668 8.00001 2.66668C6.51112 2.66668 5.25001 3.18334 4.21668 4.21668C3.18334 5.25001 2.66668 6.51112 2.66668 8.00001C2.66668 9.4889 3.18334 10.75 4.21668 11.7833C5.25001 12.8167 6.51112 13.3333 8.00001 13.3333ZM5.33334 10.6667V8.61668L9.01668 4.95001C9.11668 4.85001 9.22779 4.77779 9.35001 4.73334C9.47223 4.6889 9.59445 4.66668 9.71668 4.66668C9.85001 4.66668 9.97779 4.69168 10.1 4.74168C10.2222 4.79168 10.3333 4.86668 10.4333 4.96668L11.05 5.58334C11.1389 5.68334 11.2083 5.79445 11.2583 5.91668C11.3083 6.0389 11.3333 6.16112 11.3333 6.28334C11.3333 6.40557 11.3111 6.53057 11.2667 6.65834C11.2222 6.78612 11.15 6.90001 11.05 7.00001L7.38334 10.6667H5.33334ZM6.33334 9.66668H6.96668L8.98334 7.63334L8.68334 7.31668L8.36668 7.01668L6.33334 9.03334V9.66668ZM8.68334 7.31668L8.36668 7.01668L8.98334 7.63334L8.68334 7.31668Z" fill="#5137E0"/>
</g>
</svg>
