<svg width="17" height="18" viewBox="0 0 17 18" fill="none" xmlns="http://www.w3.org/2000/svg">
<path d="M8.5 0.666656C3.89167 0.666656 0.166672 4.39166 0.166672 8.99999C0.166672 13.6083 3.89167 17.3333 8.5 17.3333C10.7101 17.3333 12.8298 16.4553 14.3926 14.8925C15.9554 13.3297 16.8333 11.2101 16.8333 8.99999C16.8333 4.39166 13.0833 0.666656 8.5 0.666656ZM5.9 5.51666L7.66667 7.28332L6.78334 8.16666L5.9 7.28332L5.01667 8.16666L4.13334 7.28332L5.9 5.51666ZM8.5 13.5833C6.55834 13.5833 4.90834 12.3667 4.24167 10.6667H12.7583C12.0917 12.3667 10.4417 13.5833 8.5 13.5833ZM11.9833 8.16666L11.1 7.28332L10.2167 8.16666L9.33334 7.28332L11.1 5.51666L12.8667 7.28332L11.9833 8.16666Z" fill="#0FAB4D"/>
</svg>
