<svg width="16" height="16" viewBox="0 0 16 16" fill="none" xmlns="http://www.w3.org/2000/svg">
<mask id="mask0_99_472" style="mask-type:alpha" maskUnits="userSpaceOnUse" x="0" y="0" width="16" height="16">
<rect width="16" height="16" fill="#D9D9D9"/>
</mask>
<g mask="url(#mask0_99_472)">
<path d="M0.666672 13.3333V11.4667C0.666672 11.0889 0.763894 10.7417 0.958338 10.425C1.15278 10.1083 1.41112 9.86666 1.73334 9.69999C2.42223 9.35555 3.12223 9.09721 3.83334 8.92499C4.54445 8.75277 5.26667 8.66666 6.00001 8.66666C6.73334 8.66666 7.45556 8.75277 8.16667 8.92499C8.87778 9.09721 9.57778 9.35555 10.2667 9.69999C10.5889 9.86666 10.8472 10.1083 11.0417 10.425C11.2361 10.7417 11.3333 11.0889 11.3333 11.4667V13.3333H0.666672ZM12.6667 13.3333V11.3333C12.6667 10.8444 12.5306 10.375 12.2583 9.92499C11.9861 9.47499 11.6 9.08888 11.1 8.76666C11.6667 8.83332 12.2 8.94721 12.7 9.10832C13.2 9.26943 13.6667 9.46666 14.1 9.69999C14.5 9.92221 14.8056 10.1694 15.0167 10.4417C15.2278 10.7139 15.3333 11.0111 15.3333 11.3333V13.3333H12.6667ZM6.00001 7.99999C5.26667 7.99999 4.63889 7.73888 4.11667 7.21666C3.59445 6.69443 3.33334 6.06666 3.33334 5.33332C3.33334 4.59999 3.59445 3.97221 4.11667 3.44999C4.63889 2.92777 5.26667 2.66666 6.00001 2.66666C6.73334 2.66666 7.36112 2.92777 7.88334 3.44999C8.40556 3.97221 8.66667 4.59999 8.66667 5.33332C8.66667 6.06666 8.40556 6.69443 7.88334 7.21666C7.36112 7.73888 6.73334 7.99999 6.00001 7.99999ZM12.6667 5.33332C12.6667 6.06666 12.4056 6.69443 11.8833 7.21666C11.3611 7.73888 10.7333 7.99999 10 7.99999C9.87778 7.99999 9.72223 7.9861 9.53334 7.95832C9.34445 7.93055 9.18889 7.89999 9.06667 7.86666C9.36667 7.5111 9.59723 7.11666 9.75834 6.68332C9.91945 6.24999 10 5.79999 10 5.33332C10 4.86666 9.91945 4.41666 9.75834 3.98332C9.59723 3.54999 9.36667 3.15555 9.06667 2.79999C9.22223 2.74443 9.37778 2.70832 9.53334 2.69166C9.68889 2.67499 9.84445 2.66666 10 2.66666C10.7333 2.66666 11.3611 2.92777 11.8833 3.44999C12.4056 3.97221 12.6667 4.59999 12.6667 5.33332ZM2.00001 12H10V11.4667C10 11.3444 9.96945 11.2333 9.90834 11.1333C9.84723 11.0333 9.76667 10.9555 9.66667 10.9C9.06667 10.6 8.46112 10.375 7.85001 10.225C7.23889 10.075 6.62223 9.99999 6.00001 9.99999C5.37778 9.99999 4.76112 10.075 4.15001 10.225C3.53889 10.375 2.93334 10.6 2.33334 10.9C2.23334 10.9555 2.15278 11.0333 2.09167 11.1333C2.03056 11.2333 2.00001 11.3444 2.00001 11.4667V12ZM6.00001 6.66666C6.36667 6.66666 6.68056 6.5361 6.94167 6.27499C7.20278 6.01388 7.33334 5.69999 7.33334 5.33332C7.33334 4.96666 7.20278 4.65277 6.94167 4.39166C6.68056 4.13055 6.36667 3.99999 6.00001 3.99999C5.63334 3.99999 5.31945 4.13055 5.05834 4.39166C4.79723 4.65277 4.66667 4.96666 4.66667 5.33332C4.66667 5.69999 4.79723 6.01388 5.05834 6.27499C5.31945 6.5361 5.63334 6.66666 6.00001 6.66666Z" fill="#5137E0"/>
</g>
</svg>
