<svg width="20" height="20" viewBox="0 0 20 20" fill="none" xmlns="http://www.w3.org/2000/svg">
<path d="M10 1.66666C5.39167 1.66666 1.66667 5.39166 1.66667 9.99999C1.66667 14.6083 5.39167 18.3333 10 18.3333C12.2101 18.3333 14.3298 17.4553 15.8926 15.8925C17.4554 14.3297 18.3333 12.2101 18.3333 9.99999C18.3333 5.39166 14.5833 1.66666 10 1.66666ZM7.4 6.51666L9.16667 8.28332L8.28334 9.16666L7.4 8.28332L6.51667 9.16666L5.63334 8.28332L7.4 6.51666ZM10 14.5833C8.05834 14.5833 6.40834 13.3667 5.74167 11.6667H14.2583C13.5917 13.3667 11.9417 14.5833 10 14.5833ZM13.4833 9.16666L12.6 8.28332L11.7167 9.16666L10.8333 8.28332L12.6 6.51666L14.3667 8.28332L13.4833 9.16666Z" fill="#FAA82E"/>
</svg>
