<svg width="18" height="18" viewBox="0 0 18 18" fill="none" xmlns="http://www.w3.org/2000/svg">
<mask id="mask0_90_239" style="mask-type:alpha" maskUnits="userSpaceOnUse" x="0" y="0" width="18" height="18">
<rect width="18" height="18" fill="#E1DDF4"/>
</mask>
<g mask="url(#mask0_90_239)">
<path d="M4.5 15L5.25 12H2.25L2.625 10.5H5.625L6.375 7.5H3.375L3.75 6H6.75L7.5 3H9L8.25 6H11.25L12 3H13.5L12.75 6H15.75L15.375 7.5H12.375L11.625 10.5H14.625L14.25 12H11.25L10.5 15H9L9.75 12H6.75L6 15H4.5ZM7.125 10.5H10.125L10.875 7.5H7.875L7.125 10.5Z" fill="#5137E0"/>
</g>
</svg>
