<svg width="20" height="20" viewBox="0 0 20 20" fill="none" xmlns="http://www.w3.org/2000/svg">
<mask id="mask0_99_310" style="mask-type:alpha" maskUnits="userSpaceOnUse" x="0" y="0" width="20" height="20">
<rect width="20" height="20" fill="#E1DDF4"/>
</mask>
<g mask="url(#mask0_99_310)">
<path d="M4.16667 3.33333V8.35417V8.33333V16.6667V3.33333ZM5.83333 11.6667H8.75C8.875 11.3472 9.02778 11.0486 9.20833 10.7708C9.38889 10.4931 9.59722 10.2361 9.83333 10H5.83333V11.6667ZM5.83333 15H8.47917C8.40972 14.7222 8.36458 14.4444 8.34375 14.1667C8.32292 13.8889 8.32639 13.6111 8.35417 13.3333H5.83333V15ZM4.16667 18.3333C3.70833 18.3333 3.31597 18.1701 2.98958 17.8438C2.66319 17.5174 2.5 17.125 2.5 16.6667V3.33333C2.5 2.875 2.66319 2.48264 2.98958 2.15625C3.31597 1.82986 3.70833 1.66667 4.16667 1.66667H10.8333L15.8333 6.66667V8.75C15.5694 8.63889 15.2986 8.55208 15.0208 8.48958C14.7431 8.42708 14.4583 8.38195 14.1667 8.35417V7.5H10V3.33333H4.16667V16.6667H9.1875C9.40972 17 9.65972 17.309 9.9375 17.5938C10.2153 17.8785 10.5208 18.125 10.8542 18.3333H4.16667ZM13.75 15.8333C14.3333 15.8333 14.8264 15.6319 15.2292 15.2292C15.6319 14.8264 15.8333 14.3333 15.8333 13.75C15.8333 13.1667 15.6319 12.6736 15.2292 12.2708C14.8264 11.8681 14.3333 11.6667 13.75 11.6667C13.1667 11.6667 12.6736 11.8681 12.2708 12.2708C11.8681 12.6736 11.6667 13.1667 11.6667 13.75C11.6667 14.3333 11.8681 14.8264 12.2708 15.2292C12.6736 15.6319 13.1667 15.8333 13.75 15.8333ZM18 19.1667L15.75 16.9167C15.4583 17.1111 15.1424 17.2569 14.8021 17.3542C14.4618 17.4514 14.1111 17.5 13.75 17.5C12.7083 17.5 11.8229 17.1354 11.0938 16.4063C10.3646 15.6771 10 14.7917 10 13.75C10 12.7083 10.3646 11.8229 11.0938 11.0938C11.8229 10.3646 12.7083 10 13.75 10C14.7917 10 15.6771 10.3646 16.4062 11.0938C17.1354 11.8229 17.5 12.7083 17.5 13.75C17.5 14.1111 17.4514 14.4618 17.3542 14.8021C17.2569 15.1424 17.1111 15.4583 16.9167 15.75L19.1667 18L18 19.1667Z" fill="white"/>
</g>
</svg>
