<svg width="20" height="20" viewBox="0 0 20 20" fill="none" xmlns="http://www.w3.org/2000/svg">
<mask id="mask0_99_315" style="mask-type:alpha" maskUnits="userSpaceOnUse" x="0" y="0" width="20" height="20">
<rect width="20" height="20" fill="#E1DDF4"/>
</mask>
<g mask="url(#mask0_99_315)">
<path d="M9.16666 17.4583C7.48611 17.25 6.09374 16.5174 4.98958 15.2604C3.88541 14.0035 3.33333 12.5278 3.33333 10.8333C3.33333 9.91667 3.51388 9.03819 3.87499 8.19792C4.23611 7.35764 4.74999 6.625 5.41666 6L6.60416 7.1875C6.07638 7.65972 5.67708 8.20833 5.40624 8.83333C5.13541 9.45833 4.99999 10.125 4.99999 10.8333C4.99999 12.0556 5.38888 13.1354 6.16666 14.0729C6.94444 15.0104 7.94444 15.5833 9.16666 15.7917V17.4583ZM10.8333 17.4583V15.7917C12.0417 15.5694 13.0382 14.9931 13.8229 14.0625C14.6076 13.1319 15 12.0556 15 10.8333C15 9.44444 14.5139 8.26389 13.5417 7.29167C12.5694 6.31944 11.3889 5.83333 9.99999 5.83333H9.93749L10.8542 6.75L9.68749 7.91667L6.77083 5L9.68749 2.08333L10.8542 3.25L9.93749 4.16667H9.99999C11.8611 4.16667 13.4375 4.8125 14.7292 6.10417C16.0208 7.39583 16.6667 8.97222 16.6667 10.8333C16.6667 12.5139 16.1146 13.9826 15.0104 15.2396C13.9062 16.4965 12.5139 17.2361 10.8333 17.4583Z" fill="#5137E0"/>
</g>
</svg>
