<svg width="21" height="20" viewBox="0 0 21 20" fill="none" xmlns="http://www.w3.org/2000/svg">
<mask id="mask0_99_578" style="mask-type:alpha" maskUnits="userSpaceOnUse" x="0" y="0" width="21" height="20">
<rect x="0.5" width="20" height="20" fill="#D9D9D9"/>
</mask>
<g mask="url(#mask0_99_578)">
<path d="M10.5 13.3333C11.5416 13.3333 12.4271 12.9687 13.1562 12.2396C13.8854 11.5104 14.25 10.625 14.25 9.58333C14.25 8.54166 13.8854 7.65624 13.1562 6.92708C12.4271 6.19791 11.5416 5.83333 10.5 5.83333C9.45831 5.83333 8.5729 6.19791 7.84373 6.92708C7.11456 7.65624 6.74998 8.54166 6.74998 9.58333C6.74998 10.625 7.11456 11.5104 7.84373 12.2396C8.5729 12.9687 9.45831 13.3333 10.5 13.3333ZM10.5 11.8333C9.87498 11.8333 9.34373 11.6146 8.90623 11.1771C8.46873 10.7396 8.24998 10.2083 8.24998 9.58333C8.24998 8.95833 8.46873 8.42708 8.90623 7.98958C9.34373 7.55208 9.87498 7.33333 10.5 7.33333C11.125 7.33333 11.6562 7.55208 12.0937 7.98958C12.5312 8.42708 12.75 8.95833 12.75 9.58333C12.75 10.2083 12.5312 10.7396 12.0937 11.1771C11.6562 11.6146 11.125 11.8333 10.5 11.8333ZM10.5 15.8333C8.4722 15.8333 6.62498 15.2674 4.95831 14.1354C3.29165 13.0035 2.08331 11.4861 1.33331 9.58333C2.08331 7.68055 3.29165 6.16319 4.95831 5.03124C6.62498 3.8993 8.4722 3.33333 10.5 3.33333C12.5278 3.33333 14.375 3.8993 16.0416 5.03124C17.7083 6.16319 18.9166 7.68055 19.6666 9.58333C18.9166 11.4861 17.7083 13.0035 16.0416 14.1354C14.375 15.2674 12.5278 15.8333 10.5 15.8333ZM10.5 14.1667C12.0694 14.1667 13.5104 13.7535 14.8229 12.9271C16.1354 12.1007 17.1389 10.9861 17.8333 9.58333C17.1389 8.18055 16.1354 7.06597 14.8229 6.23958C13.5104 5.41319 12.0694 4.99999 10.5 4.99999C8.93053 4.99999 7.48956 5.41319 6.17706 6.23958C4.86456 7.06597 3.86109 8.18055 3.16665 9.58333C3.86109 10.9861 4.86456 12.1007 6.17706 12.9271C7.48956 13.7535 8.93053 14.1667 10.5 14.1667Z" fill="white"/>
</g>
</svg>
